<?xml version="1.0" standalone="no"?>
<svg viewBox="0 0 200 200" xmlns="http://www.w3.org/2000/svg">
  <path fill="#1A91F0" d="M26.7,-52.6C35.4,-41.2,43.9,-35.7,51.4,-27.9C59,-20.2,65.6,-10.1,68,1.4C70.4,12.8,68.6,25.7,60.8,33.1C53,40.5,39.4,42.5,28.2,50.4C17.1,58.3,8.6,72.1,-1.7,75.1C-12,78.1,-24.1,70.4,-37.7,63.9C-51.3,57.4,-66.5,52.3,-71.6,41.9C-76.6,31.4,-71.5,15.7,-71.4,0.1C-71.3,-15.6,-76.2,-31.2,-69.8,-39.3C-63.4,-47.4,-45.8,-48.1,-32.3,-56.8C-18.8,-65.5,-9.4,-82.1,-0.2,-81.8C9,-81.4,18,-64,26.7,-52.6Z" transform="translate(100 100)" />
</svg>
