<svg fill="none" height="300" width="380" xmlns="http://www.w3.org/2000/svg" xmlns:xlink="http://www.w3.org/1999/xlink"><filter id="a" color-interpolation-filters="sRGB" filterUnits="userSpaceOnUse" height="145" width="112" x="98" y="28"><feFlood flood-opacity="0" result="BackgroundImageFix"/><feColorMatrix in="SourceAlpha" values="0 0 0 0 0 0 0 0 0 0 0 0 0 0 0 0 0 0 127 0"/><feOffset dy="4"/><feGaussianBlur stdDeviation="8"/><feColorMatrix values="0 0 0 0 0.14902 0 0 0 0 0.168627 0 0 0 0 0.2 0 0 0 0.08 0"/><feBlend in2="BackgroundImageFix" result="effect1_dropShadow"/><feBlend in="SourceGraphic" in2="effect1_dropShadow" result="shape"/></filter><filter id="b" color-interpolation-filters="sRGB" filterUnits="userSpaceOnUse" height="145" width="112" x="154" y="73"><feFlood flood-opacity="0" result="BackgroundImageFix"/><feColorMatrix in="SourceAlpha" values="0 0 0 0 0 0 0 0 0 0 0 0 0 0 0 0 0 0 127 0"/><feOffset dy="4"/><feGaussianBlur stdDeviation="8"/><feColorMatrix values="0 0 0 0 0.14902 0 0 0 0 0.168627 0 0 0 0 0.2 0 0 0 0.08 0"/><feBlend in2="BackgroundImageFix" result="effect1_dropShadow"/><feBlend in="SourceGraphic" in2="effect1_dropShadow" result="shape"/></filter><filter id="c" color-interpolation-filters="sRGB" filterUnits="userSpaceOnUse" height="145" width="112" x="210" y="119"><feFlood flood-opacity="0" result="BackgroundImageFix"/><feColorMatrix in="SourceAlpha" values="0 0 0 0 0 0 0 0 0 0 0 0 0 0 0 0 0 0 127 0"/><feOffset dy="4"/><feGaussianBlur stdDeviation="8"/><feColorMatrix values="0 0 0 0 0.14902 0 0 0 0 0.168627 0 0 0 0 0.2 0 0 0 0.08 0"/><feBlend in2="BackgroundImageFix" result="effect1_dropShadow"/><feColorMatrix in="SourceAlpha" values="0 0 0 0 0 0 0 0 0 0 0 0 0 0 0 0 0 0 127 0"/><feOffset dy="1"/><feGaussianBlur stdDeviation="1.5"/><feColorMatrix values="0 0 0 0 0.14902 0 0 0 0 0.168627 0 0 0 0 0.2 0 0 0 0.06 0"/><feBlend in2="effect1_dropShadow" result="effect2_dropShadow"/><feBlend in="SourceGraphic" in2="effect2_dropShadow" result="shape"/></filter><linearGradient id="d" gradientUnits="userSpaceOnUse" x1="-20" x2="-20" y1="220" y2="300"><stop offset="0" stop-color="#fff" stop-opacity="0"/><stop offset="1" stop-color="#fff"/></linearGradient><linearGradient id="e" gradientUnits="userSpaceOnUse" x1="-20" x2="-20" y1="0" y2="80"><stop offset="0" stop-color="#fff"/><stop offset="1" stop-color="#fff" stop-opacity="0"/></linearGradient><mask id="f" height="300" maskUnits="userSpaceOnUse" width="380" x="0" y="0"><path d="m0 0h380v294a6 6 0 0 1 -6 6h-368a6 6 0 0 1 -6-6z" fill="#fff"/></mask><mask id="g" height="113" maskUnits="userSpaceOnUse" width="80" x="114" y="40"><rect fill="#fff" height="113" rx="4" width="80" x="114" y="40"/></mask><g mask="url(#f)"><path clip-rule="evenodd" d="m-.4-22a2 2 0 0 1 2.4 1.6l.8 4a2 2 0 1 1 -3.9.8 449 449 0 0 1 -.9-4 2 2 0 0 1 1.6-2.4zm3.6 16a2 2 0 0 1 2.4 1.4l2.2 7.8a2 2 0 0 1 -3.9 1.1l-2.1-8a2 2 0 0 1 1.4-2.3zm5.6 19.5a2 2 0 0 1 2.5 1.3l2.6 7.6a2 2 0 0 1 -3.7 1.4c-1-2.5-1.8-5.1-2.7-7.8a2 2 0 0 1 1.3-2.5zm7 19a2 2 0 0 1 2.7 1c1 2.5 2.2 5 3.4 7.3a2 2 0 0 1 -3.6 1.8l-3.5-7.6a2 2 0 0 1 1-2.7zm9.2 18a2 2 0 0 1 2.8.7c1.4 2.3 2.9 4.5 4.4 6.6a2 2 0 0 1 -3.3 2.4l-4.5-7a2 2 0 0 1 .6-2.7zm11.7 16.5a2 2 0 0 1 2.8.2c1.8 2 3.7 3.9 5.6 5.7a2 2 0 0 1 -2.8 2.9c-2-1.9-3.9-3.9-5.7-6a2 2 0 0 1 .1-2.8zm14.7 14a2 2 0 0 1 2.8-.5 95 95 0 0 0 6.6 4.4 2 2 0 0 1 -2 3.4 99 99 0 0 1 -7-4.6 2 2 0 0 1 -.4-2.8zm17.3 10.5a2 2 0 0 1 2.7-1c2.3 1.1 4.8 2.1 7.3 3a2 2 0 0 1 -1.4 3.8l-7.6-3.1a2 2 0 0 1 -1-2.7zm19 7.2a2 2 0 0 1 2.4-1.4l7.8 1.9a2 2 0 1 1 -.8 3.9l-8-2a2 2 0 0 1 -1.4-2.4zm19.8 4.3a2 2 0 0 1 2.2-1.7c2.6.4 5.3.8 8 1a2 2 0 0 1 -.4 4l-8.1-1a2 2 0 0 1 -1.7-2.3zm20.1 2.3c.1-1.1 1-2 2.2-2 2.6.3 5.3.4 8 .5a2 2 0 0 1 -.1 4l-8.2-.4a2 2 0 0 1 -1.9-2.1zm27-1.3 4 2.7a2 2 0 0 1 -2.3 3.3l-3-2h-3.3a2 2 0 1 1 0-4h4.7zm11.4 10.3a2 2 0 0 1 2.7-.5l6.8 4.8a2 2 0 0 1 -2.2 3.3l-6.8-4.8a2 2 0 0 1 -.5-2.8zm17 11.9a2 2 0 0 1 2.7-.5l6.8 4.7a2 2 0 0 1 -2.2 3.3l-6.8-4.7a2 2 0 0 1 -.5-2.8zm17 11.9a2 2 0 0 1 2.7-.5l6.8 4.7a2 2 0 1 1 -2.2 3.3l-6.8-4.8a2 2 0 0 1 -.5-2.7zm17 11.8a2 2 0 0 1 2.7-.5l6.8 4.8a2 2 0 1 1 -2.2 3.2l-6.8-4.7a2 2 0 0 1 -.5-2.8zm17 11.9a2 2 0 0 1 2.7-.5l6.8 4.7a2 2 0 1 1 -2.2 3.3l-6.8-4.7a2 2 0 0 1 -.5-2.8zm17 11.8a2 2 0 0 1 2.7-.5l6.8 4.8a2 2 0 0 1 -2.2 3.3l-6.8-4.8a2 2 0 0 1 -.5-2.8zm17 11.9a2 2 0 0 1 2.7-.5l4.5 3.1-.2 1.3-.8 3.8a2 2 0 0 1 -3.9-.8l.5-2.5-2.3-1.6a2 2 0 0 1 -.5-2.8zm2.6 16.7a2 2 0 0 1 1.6 2.3l-1.2 7.6a2 2 0 0 1 -4-.6l1.3-7.7a2 2 0 0 1 2.3-1.6zm-2.8 19a2 2 0 0 1 1.7 2.2l-.8 7.6a2 2 0 0 1 -4-.3l.8-7.7a2 2 0 0 1 2.3-1.8zm-1.7 19.2c1 0 2 1 2 2-.2 2.7-.2 5.2-.2 7.6a2 2 0 0 1 -4 0l.1-7.7c0-1 1-2 2-2zm.2 19.2a2 2 0 0 1 2.2 1.8l1 7.5a2 2 0 1 1 -4 .7l-1-7.8a2 2 0 0 1 1.8-2.2zm3.3 19a2 2 0 0 1 2.5 1.3c.7 2.4 1.5 4.8 2.4 7.1a2 2 0 0 1 -3.7 1.5c-1-2.5-1.8-5-2.6-7.5a2 2 0 0 1 1.4-2.4zm7 17.9a2 2 0 0 1 2.7.8c1.1 2.1 2.4 4.3 3.8 6.4a2 2 0 0 1 -3.3 2.2c-1.5-2.2-2.8-4.5-4-6.7a2 2 0 0 1 .7-2.7zm10.4 16a2 2 0 0 1 2.8.4c1.5 2 3.2 3.8 4.9 5.8a2 2 0 0 1 -3 2.7c-1.8-2-3.4-4-5-6a2 2 0 0 1 .3-2.8zm12.8 14.4a2 2 0 0 1 2.8 0l2.8 2.6a2 2 0 1 1 -2.8 3l-2.8-2.7a2 2 0 0 1 0-2.9zm72.2-232.6a26.2 26.2 0 0 1 8 0 2 2 0 1 1 -.6 4 22.2 22.2 0 0 0 -6.8 0 2 2 0 1 1 -.7-4zm16.5 5.1a2 2 0 0 1 2.8-.4c2.2 1.6 4.1 3.5 5.7 5.7a2 2 0 1 1 -3.2 2.4c-1.4-1.9-3-3.5-4.9-4.9a2 2 0 0 1 -.4-2.8zm-25 0a2 2 0 0 1 -.4 2.8c-1.9 1.4-3.5 3-4.9 4.9a2 2 0 0 1 -3.2-2.4c1.6-2.2 3.5-4.1 5.7-5.7a2 2 0 0 1 2.8.4zm-10.9 14.9a2 2 0 0 1 1.7 2.3 22.2 22.2 0 0 0 0 6.8 2 2 0 0 1 -4 .7 26.2 26.2 0 0 1 0-8.2 2 2 0 0 1 2.3-1.6zm46.8 0a2 2 0 0 1 2.3 1.6 26.2 26.2 0 0 1 0 8.2 2 2 0 0 1 -4-.7 22.2 22.2 0 0 0 0-6.8 2 2 0 0 1 1.7-2.3zm-44 18.2a2 2 0 0 1 2.8.4c1.4 1.9 3 3.5 4.9 4.9a2 2 0 0 1 -2.4 3.2 26.1 26.1 0 0 1 -5.7-5.7 2 2 0 0 1 .4-2.8zm41.2 0c.9.6 1 1.9.4 2.8a26.1 26.1 0 0 1 -5.7 5.7 2 2 0 1 1 -2.4-3.2c1.9-1.4 3.5-3 4.9-4.9a2 2 0 0 1 2.8-.4zm-26.3 10.9a2 2 0 0 1 2.3-1.7 22.2 22.2 0 0 0 6.8 0 2 2 0 0 1 .7 4 26.2 26.2 0 0 1 -8.2 0 2 2 0 0 1 -1.6-2.3zm-303.7 66.9a22 22 0 0 1 6.8 0 2 2 0 1 1 -.6 4 18.2 18.2 0 0 0 -5.6 0 2 2 0 1 1 -.6-4zm-6.7 4.3a2 2 0 0 1 -.5 2.8 18.1 18.1 0 0 0 -4 4 2 2 0 0 1 -3.2-2.3c1.4-1.9 3-3.5 4.9-4.9a2 2 0 0 1 2.8.4zm20.2 0a2 2 0 0 1 2.8-.4c1.9 1.4 3.5 3 4.9 4.9a2 2 0 0 1 -3.2 2.3 18.1 18.1 0 0 0 -4-4 2 2 0 0 1 -.5-2.8zm-29.5 12.4a2 2 0 0 1 1.6 2.3 18.1 18.1 0 0 0 0 5.6 2 2 0 1 1 -4 .6 22.2 22.2 0 0 1 0-6.8 2 2 0 0 1 2.4-1.7zm38.8 0a2 2 0 0 1 2.3 1.7 22.2 22.2 0 0 1 0 6.8 2 2 0 1 1 -4-.6 18.1 18.1 0 0 0 0-5.6 2 2 0 0 1 1.7-2.3zm-36.8 15a2 2 0 0 1 2.8.5c1.1 1.5 2.5 2.9 4 4a2 2 0 1 1 -2.3 3.2c-1.9-1.4-3.5-3-4.9-4.9a2 2 0 0 1 .4-2.8zm34.8 0c.9.7 1 2 .4 2.8-1.4 1.9-3 3.5-4.9 4.9a2 2 0 1 1 -2.3-3.2c1.5-1.1 2.9-2.5 4-4a2 2 0 0 1 2.8-.5zm-22.5 9.3a2 2 0 0 1 2.3-1.6 18.2 18.2 0 0 0 5.6 0 2 2 0 1 1 .6 4 22 22 0 0 1 -6.8 0 2 2 0 0 1 -1.7-2.4z" fill="#dde3f0" fill-rule="evenodd"/><path d="m-420 220h800v80h-800z" fill="url(#d)"/><path d="m-420 0h800v80h-800z" fill="url(#e)"/><rect height="82" rx="41" stroke="#f2f5fa" stroke-width="82" width="82" x="169" y="101"/><circle cx="138" cy="197" fill="#262b33" r="20"/><path d="m137.8 202h1.6l-4.5-12h-1.3l-4.6 12h1.6l1.2-3h4.9zm-3.6-9.5 2 5.2h-4zm9.8.9c-2 0-3.1 1-3.3 2.5h1.5c.2-.7.7-1.2 1.7-1.2s1.8.7 1.8 1.6v.5c-4.3 0-5.4 1.1-5.4 2.7 0 1.5 1.1 2.6 2.9 2.6 1.7 0 2.5-1 2.5-1l.4.9h1v-5.7c0-1.6-1.3-3-3.2-3zm-.8 7.4c-.9 0-1.5-.6-1.5-1.2 0-1 .6-1.5 4-1.5v.7c0 1-1 2-2.5 2z" fill="#98a1b3"/><g filter="url(#a)"><rect fill="#fff" height="113" rx="4" width="80" x="114" y="40"/><g mask="url(#g)"><path d="m114 44a4 4 0 0 1 4-4h72a4 4 0 0 1 4 4v13h-80z" fill="#fdc87a"/><rect fill="#e68f0e" height="3" rx="1.5" width="16" x="122" y="45"/><rect fill="#e68f0e" height="3" rx="1.5" width="20" x="140" y="45"/><rect fill="#e68f0e" height="2" rx="1" width="24" x="122" y="50"/><g fill="#e6ebf4"><rect height="1" rx=".5" width="64" x="122" y="69"/><rect height="2" rx="1" width="12" x="122" y="65"/><rect height="2" rx="1" width="8" x="178" y="65"/><path d="m122 78.5c0-.3.2-.5.5-.5h63c.3 0 .5.2.5.5v1c0 .3-.2.5-.5.5h-63a.5.5 0 0 1 -.5-.5zm0 4c0-.3.2-.5.5-.5h59c.3 0 .5.2.5.5v1c0 .3-.2.5-.5.5h-59a.5.5 0 0 1 -.5-.5zm.5 15.5c-.3 0-.5.2-.5.5v1c0 .3.2.5.5.5h63c.3 0 .5-.2.5-.5v-1c0-.3-.2-.5-.5-.5zm-.5-11.5c0-.3.2-.5.5-.5h63c.3 0 .5.2.5.5v1c0 .3-.2.5-.5.5h-63a.5.5 0 0 1 -.5-.5zm.5 15.5c-.3 0-.5.2-.5.5v1c0 .3.2.5.5.5h61c.3 0 .5-.2.5-.5v-1c0-.3-.2-.5-.5-.5zm-.5-11.5c0-.3.2-.5.5-.5h61c.3 0 .5.2.5.5v1c0 .3-.2.5-.5.5h-61a.5.5 0 0 1 -.5-.5zm.5 15.5c-.3 0-.5.2-.5.5v1c0 .3.2.5.5.5h63c.3 0 .5-.2.5-.5v-1c0-.3-.2-.5-.5-.5zm-.5-11.5c0-.3.2-.5.5-.5h63c.3 0 .5.2.5.5v1c0 .3-.2.5-.5.5h-63a.5.5 0 0 1 -.5-.5zm.5 15.5c-.3 0-.5.2-.5.5v1c0 .3.2.5.5.5h40c.3 0 .5-.2.5-.5v-1c0-.3-.2-.5-.5-.5z"/></g></g></g><g filter="url(#b)"><rect fill="#fff" height="113" rx="4" width="80" x="170" y="85"/><path d="m170 89a4 4 0 0 1 4-4h22v113h-22a4 4 0 0 1 -4-4z" fill="#214b41"/><g fill="#41776a"><rect height="3" rx="1.5" width="16" x="175" y="105"/><circle cx="183" cy="97" r="4"/><rect height="3" rx="1.5" width="10" x="178" y="110"/><rect height="2" rx="1" width="16" x="175" y="119"/><rect height="2" rx="1" width="16" x="175" y="139"/><rect height="2" rx="1" width="16" x="175" y="123"/><rect height="2" rx="1" width="16" x="175" y="143"/><rect height="2" rx="1" width="16" x="175" y="127"/><rect height="2" rx="1" width="16" x="175" y="147"/><rect height="2" rx="1" width="8" x="175" y="131"/><rect height="2" rx="1" width="8" x="175" y="151"/></g><path d="m204 105.5c0-.3.2-.5.5-.5h37c.3 0 .5.2.5.5v1c0 .3-.2.5-.5.5h-37a.5.5 0 0 1 -.5-.5zm0 4c0-.3.2-.5.5-.5h32.8c.2 0 .5.2.5.5v1c0 .3-.3.5-.6.5h-32.7a.5.5 0 0 1 -.5-.5zm.5 15.5c-.3 0-.5.2-.5.5v1c0 .3.2.5.5.5h37c.3 0 .5-.2.5-.5v-1c0-.3-.2-.5-.5-.5zm-.5-11.5c0-.3.2-.5.5-.5h37c.3 0 .5.2.5.5v1c0 .3-.2.5-.5.5h-37a.5.5 0 0 1 -.5-.5zm.5 15.5c-.3 0-.5.2-.5.5v1c0 .3.2.5.5.5h34.9c.3 0 .5-.2.5-.5v-1c0-.3-.2-.5-.5-.5zm-.5-11.5c0-.3.2-.5.5-.5h34.9c.3 0 .5.2.5.5v1c0 .3-.2.5-.5.5h-34.9a.5.5 0 0 1 -.5-.5zm.5 15.5c-.3 0-.5.2-.5.5v1c0 .3.2.5.5.5h37c.3 0 .5-.2.5-.5v-1c0-.3-.2-.5-.5-.5zm-.5-11.5c0-.3.2-.5.5-.5h37c.3 0 .5.2.5.5v1c0 .3-.2.5-.5.5h-37a.5.5 0 0 1 -.5-.5zm.5 15.5c-.3 0-.5.2-.5.5v1c0 .3.2.5.5.5h12.7c.3 0 .5-.2.5-.5v-1c0-.3-.2-.5-.5-.5z" fill="#e6ebf4"/><rect fill="#e6ebf4" height="2" rx="1" width="8.4" x="204" y="93"/><rect fill="#e6ebf4" height="2" rx="1" width="16.9" x="204" y="99"/><rect fill="#e6ebf4" height="3" rx="1.5" width="16.4" x="204" y="145"/><path d="m204 152.5c0-.3.2-.5.5-.5h39c.3 0 .5.2.5.5v1c0 .3-.2.5-.5.5h-39c-.3 0-.5-.2-.5-.5zm0 4c0-.3.2-.5.5-.5h35.4c.3 0 .5.2.5.5v1c0 .3-.2.5-.5.5h-35.4c-.3 0-.5-.2-.5-.5zm0 4c0-.3.2-.5.5-.5h39c.3 0 .5.2.5.5v1c0 .3-.2.5-.5.5h-39c-.3 0-.5-.2-.5-.5zm0 4c0-.3.2-.5.5-.5h37.2c.3 0 .5.2.5.5v1c0 .3-.2.5-.5.5h-37.2c-.3 0-.5-.2-.5-.5zm0 4c0-.3.2-.5.5-.5h18c.3 0 .5.2.5.5v1c0 .3-.2.5-.5.5h-18c-.3 0-.5-.2-.5-.5z" fill="#e6ebf4"/></g><g filter="url(#c)"><rect fill="#fff" height="113" rx="4" width="80" x="226" y="131"/><path d="m282 131h20a4 4 0 0 1 4 4v105a4 4 0 0 1 -4 4h-20z" fill="#132a4c"/><g fill="#435d84"><rect height="2" rx="1" width="12" x="288" y="139"/><rect height="2" rx="1" width="12" x="288" y="159"/><rect height="2" rx="1" width="12" x="288" y="143"/><rect height="2" rx="1" width="12" x="288" y="163"/><rect height="2" rx="1" width="12" x="288" y="147"/><rect height="2" rx="1" width="12" x="288" y="167"/><rect height="2" rx="1" width="6" x="288" y="151"/><rect height="2" rx="1" width="6" x="288" y="171"/></g><rect fill="#e6ebf4" height="3" rx="1.5" width="25.5" x="234" y="139"/><rect fill="#e6ebf4" height="3" rx="1.5" width="29.1" x="234" y="144"/><rect fill="#e6ebf4" height="2" rx="1" width="10.9" x="234" y="151"/><rect fill="#e6ebf4" height="3" rx="1.5" width="16.4" x="234" y="161"/><path d="m234 168.5c0-.3.2-.5.5-.5h39c.3 0 .5.2.5.5v1c0 .3-.2.5-.5.5h-39c-.3 0-.5-.2-.5-.5zm0 4c0-.3.2-.5.5-.5h35.4c.3 0 .5.2.5.5v1c0 .3-.2.5-.5.5h-35.4c-.3 0-.5-.2-.5-.5zm.5 15.5c-.3 0-.5.2-.5.5v1c0 .3.2.5.5.5h39c.3 0 .5-.2.5-.5v-1c0-.3-.2-.5-.5-.5zm-.5-11.5c0-.3.2-.5.5-.5h39c.3 0 .5.2.5.5v1c0 .3-.2.5-.5.5h-39c-.3 0-.5-.2-.5-.5zm.5 15.5c-.3 0-.5.2-.5.5v1c0 .3.2.5.5.5h37.2c.3 0 .5-.2.5-.5v-1c0-.3-.2-.5-.5-.5zm-.5-11.5c0-.3.2-.5.5-.5h37.2c.3 0 .5.2.5.5v1c0 .3-.2.5-.5.5h-37.2c-.3 0-.5-.2-.5-.5zm.5 15.5c-.3 0-.5.2-.5.5v1c0 .3.2.5.5.5h39c.3 0 .5-.2.5-.5v-1c0-.3-.2-.5-.5-.5zm-.5-11.5c0-.3.2-.5.5-.5h39c.3 0 .5.2.5.5v1c0 .3-.2.5-.5.5h-39c-.3 0-.5-.2-.5-.5zm.5 15.5c-.3 0-.5.2-.5.5v1c0 .3.2.5.5.5h18.1c.3 0 .5-.2.5-.5v-1c0-.3-.2-.5-.5-.5z" fill="#e6ebf4"/></g><path d="m318 68a32 32 0 0 1 -6.1 18.8l-25.9-18.8z" fill="#f73b51"/><path d="m311.9 86.8a32 32 0 0 1 -16 11.6l-9.9-30.4z" fill="#fa7044"/><path d="m295.9 98.4a32 32 0 0 1 -19.8 0l9.9-30.4z" fill="#ffd747"/><path d="m276.1 98.4a32 32 0 0 1 -16-11.6l25.9-18.8z" fill="#98ce47"/><path d="m260.1 86.8a32 32 0 0 1 -6.1-18.8h32z" fill="#42bf65"/><path d="m254 68a32 32 0 0 1 6.1-18.8l25.9 18.8z" fill="#3fd3b4"/><path d="m260.1 49.2a32 32 0 0 1 16-11.6l9.9 30.4z" fill="#34bfdf"/><path d="m276.1 37.6a32 32 0 0 1 19.8 0l-9.9 30.4z" fill="#3669ed"/><path d="m295.9 37.6a32 32 0 0 1 16 11.6l-25.9 18.8z" fill="#9c1eff"/><path d="m311.9 49.2a32 32 0 0 1 6.1 18.8h-32z" fill="#d33faa"/><circle cx="286" cy="68" fill="#fff" r="15"/></g></svg>